PathFileType	4	(X/Y/Z)	Patient4_TMGait_0pt5_01_right_07.trc.trc
DataRate	CameraRate	NumFrames	NumMarkers	Units	OrigDataRate	OrigDataStartFrame	OrigNumFrames
72.164948453608	72.164948453608	4	33	mm	72.164948453608	36	       141
Frame#	Time	L.ASIS			Sacral			L.Shoulder			Chest			R.Shoulder			Neck			R.ASIS			R.Thigh.Superior			R.Thigh.Lateral			R.Thigh.Inferior			R.Patella			L.Thigh.Superior			L.Thigh.Lateral			L.Thigh.Inferior			L.Patella			L.Shank.Superior			L.Shank.Lateral			L.Shank.Inferior			R.Shank.Superior			R.Shank.Lateral			R.Shank.Inferior			R.Heel			R.Midfoot.Superior			R.Midfoot.Lateral			R.Toe			L.Heel			L.Midfoot.Lateral			L.Midfoot.Superior			L.Toe			L.Elbow			L.Wrist			R.Elbow			R.Wrist			
		X1	Y1	Z1	X2	Y2	Z2	X3	Y3	Z3	X4	Y4	Z4	X5	Y5	Z5	X6	Y6	Z6	X7	Y7	Z7	X8	Y8	Z8	X9	Y9	Z9	X10	Y10	Z10	X11	Y11	Z11	X12	Y12	Z12	X13	Y13	Z13	X14	Y14	Z14	X15	Y15	Z15	X16	Y16	Z16	X17	Y17	Z17	X18	Y18	Z18	X19	Y19	Z19	X20	Y20	Z20	X21	Y21	Z21	X22	Y22	Z22	X23	Y23	Z23	X24	Y24	Z24	X25	Y25	Z25	X26	Y26	Z26	X27	Y27	Z27	X28	Y28	Z28	X29	Y29	Z29	X30	Y30	Z30	X31	Y31	Z31	X32	Y32	Z32	X33	Y33	Z33	

36	9.185000000000	693.716489288259	961.681858659037	341.545772352746	475.974804674838	1003.218030793022	492.741599108606	648.177767834619	1434.254728721757	314.495118797007	741.990321110984	1368.633483557138	482.928963107235	643.019097036285	1441.068869063739	650.703891228061	636.039772813412	1496.994417431697	464.041716353235	702.409386556468	943.773932603579	616.180402159116	759.981854111906	749.233337207095	577.743320054292	689.933035945774	634.072961030019	638.947853526380	768.029353397305	587.411480235641	555.201996369702	776.550816869260	496.912606475314	559.852682509579	712.487880004354	736.877853353840	359.959765957311	606.815663528537	635.234513949663	296.357544931750	680.780079920014	542.127311423623	351.871927231492	668.758230493697	461.754789110411	351.115269070402	610.142937297527	403.382344987628	345.451184110449	480.578246576248	335.945517597342	294.557370735253	486.077999959396	208.341699455058	355.933332886544	750.303161198257	407.860313050257	568.914763642098	685.891056768492	303.260803309173	635.039736454196	725.655982364935	208.609886791154	570.769979873430	593.621471825379	42.992481350748	549.377646805938	765.495435764453	97.814217064087	577.706688203552	679.810489770691	36.786740692777	620.789407399339	887.000933480645	44.917236399179	601.726210053417	308.231269089822	101.485318502671	389.565857466966	380.949034335112	65.716890997782	318.303976967315	477.323102255432	104.571138588645	342.530907256603	583.003938389705	35.351432817139	334.518541706346	658.964420086028	1077.644952909204	200.273610332092	785.514960541429	849.750376990945	191.949496218230	565.125036572112	1109.027437380908	772.865718221989	710.597022305502	893.282935233089	781.279792166849	
37	9.198857142857	693.309326970190	962.216475198817	344.550219944513	476.725433350737	1003.820623771565	497.271737506235	647.221115629367	1434.692820055599	317.474941383120	742.554587596248	1369.196675068896	485.124223086870	644.961031993005	1441.807615393541	653.684105986819	636.244561408107	1497.543237335404	467.136279156914	704.125591440003	944.095209109106	618.960594209822	759.700464530068	748.346941487437	580.940895506113	687.957071826484	633.908466043508	641.634652372602	765.643850387691	586.623235264960	557.938469332616	772.975132630263	496.109720596563	562.055461513090	716.392086783646	738.499077276179	362.447561041925	613.934195670848	634.964217623846	298.241622096957	690.563001956625	542.874107352505	353.241293078049	679.270595644101	461.179033826380	351.179302443452	618.302729076592	403.331685460561	345.788039181679	486.418725111999	340.553751660655	295.086388028260	488.248825232659	212.469405454755	355.294967228810	746.161708659087	407.274292029928	570.713069782615	680.977988838854	302.889026806612	636.281670859324	720.007908637564	208.251072632430	571.571822441437	586.813997885150	43.051964661527	549.489708005881	758.809343263816	97.735942253781	577.906808782208	672.979259089425	36.747436345005	620.910917644553	880.263581738623	44.429078767722	601.889197736816	306.847453482546	113.798820336112	388.603814804351	377.358566184163	73.520488034116	317.705519113309	475.547726735949	107.315700947907	341.466893979396	576.134349639514	34.528406348371	334.567145890736	652.742711286857	1077.882222442028	203.848401929175	766.162183561435	843.301524891946	193.602724364789	572.185624907016	1110.255288560805	779.556844073657	731.129637070185	904.700108670823	786.599447913353	
38	9.212714285714	692.738244842626	962.559092064790	347.425401289293	477.304453770126	1004.298274397318	501.729395834797	646.109130704529	1435.002305932175	320.432368368498	743.063487837069	1369.563223931039	487.223393220613	646.982392558411	1442.344385916929	656.622450142289	636.403157032105	1497.920071568755	470.250522511140	705.688054217504	944.216167985378	621.599182690923	759.246610708781	747.352617656294	584.199092767540	685.810390267240	633.707117820040	644.393390520835	763.106045315273	585.775419227072	560.796027364212	769.209013276919	495.289010927919	564.473389288778	720.617503533348	740.265744625359	365.054119846815	621.873442354781	634.690357653742	300.098184805418	701.143412308746	543.868191943225	354.863280134360	690.656736735568	460.871627752259	351.656899151706	627.470927141575	403.438846762400	346.395952636282	493.465428402978	345.495108017423	295.676646539426	491.333255532521	217.178232224049	354.911960002261	741.880615108177	406.652558670785	572.695865452033	675.874990868968	302.457373543706	637.612044503451	714.281240715861	207.855101331688	572.510849492855	579.939669913254	43.104727571338	549.628949119164	752.090103328911	97.605047996529	578.173690390277	666.083575392770	36.686833860618	621.059621770051	873.474453901625	43.860176978089	602.057990123556	306.558996493783	127.457363412565	387.769289149159	374.539950054769	82.699275683450	317.171549741112	474.393364017280	110.888096998736	340.613450710631	569.394478650312	33.578896415310	334.542616355112	646.010055956163	1078.112431875532	207.258497762961	746.735877094085	837.937968481747	195.503571119232	579.588659380697	1111.451648114439	786.378462049968	751.348847760819	916.986349335841	791.793605972893	
39	9.226571428571	691.983161699089	962.718910410279	350.122589769117	477.688648218806	1004.655692905711	506.068119696474	644.845234599906	1435.201979921203	323.350594812736	743.504384382117	1369.733686150771	489.205549537337	649.076351427572	1442.675854524936	659.497941682088	636.551158670268	1498.138007185229	473.353682939796	707.062208859201	944.176136022245	624.069767060446	758.614505786260	746.309520399129	587.429862731928	683.536261071561	633.493395439659	647.162215188264	760.441373544218	584.899019005930	563.694611187633	765.288021099119	494.472119932604	567.024172345763	725.045308839291	742.226246691938	367.778247219109	630.467034052612	634.515485159317	301.927179336570	712.306567540606	545.203675811101	356.729476777963	702.739262035228	460.938967718005	352.556629723605	637.494220195075	403.788586241716	347.289400709157	501.578969966509	350.761385903183	296.374500427210	495.276754298523	222.452674310843	354.841083320459	737.489378058979	406.016672366121	574.796506668503	670.625429884302	301.995498437748	638.994121152025	708.498538418488	207.441266918970	573.553858623570	573.018504430131	43.155769749536	549.796064716812	745.347149672454	97.445987066614	578.505649265344	659.144168361029	36.614299727759	621.235743415845	866.646524562630	43.250305653035	602.241735976343	307.428112472413	142.194914683375	387.186934764763	372.615866867530	93.142623672881	316.778577320932	473.922508438749	115.353442048809	340.021852932121	562.983425638574	32.573444893935	334.406776236390	638.709870272118	1078.355921351357	210.510536162029	727.416637201034	833.624501940585	197.670999703187	587.394467966383	1112.585977158211	793.255793544988	771.146159189295	929.975109516461	796.818804278848	
